<svg data-v-423bf9ae="" xmlns="http://www.w3.org/2000/svg" viewBox="0 0 272.6530524482877 60" class="font"><!----><!----><!----><g data-v-423bf9ae="" id="ccf9fc50-f397-499b-bf37-a104e8bf9696" fill="white" transform="matrix(5.830903811703725,0,0,5.830903811703725,-2.332364569001612,-20.34985459687241)"><path d="M7.38 13.64L6.62 11.19L2.92 11.19L2.17 13.64L0.40 13.64L3.77 3.63L6.19 3.63L9.55 13.64L7.38 13.64ZM3.29 9.92L6.25 9.92L5.20 6.42L4.84 4.95L4.70 4.95L4.35 6.42L3.29 9.92ZM13.88 12.43L13.88 12.43L13.88 12.43Q14.25 12.43 14.57 12.35L14.57 12.35L14.57 12.35Q14.90 12.26 15.14 12.08L15.14 12.08L15.14 12.08Q15.38 11.91 15.52 11.65L15.52 11.65L15.52 11.65Q15.66 11.40 15.66 11.06L15.66 11.06L15.66 11.06Q15.66 10.66 15.46 10.37L15.46 10.37L15.46 10.37Q15.26 10.09 14.94 9.88L14.94 9.88L14.94 9.88Q14.62 9.67 14.21 9.50L14.21 9.50L14.21 9.50Q13.79 9.32 13.36 9.14L13.36 9.14L13.36 9.14Q12.93 8.96 12.51 8.73L12.51 8.73L12.51 8.73Q12.10 8.51 11.78 8.20L11.78 8.20L11.78 8.20Q11.46 7.89 11.26 7.45L11.26 7.45L11.26 7.45Q11.06 7.02 11.06 6.42L11.06 6.42L11.06 6.42Q11.06 5.74 11.32 5.20L11.32 5.20L11.32 5.20Q11.58 4.66 12.05 4.28L12.05 4.28L12.05 4.28Q12.52 3.90 13.19 3.70L13.19 3.70L13.19 3.70Q13.85 3.49 14.66 3.49L14.66 3.49L14.66 3.49Q14.89 3.49 15.19 3.51L15.19 3.51L15.19 3.51Q15.50 3.53 15.84 3.57L15.84 3.57L15.84 3.57Q16.19 3.62 16.56 3.69L16.56 3.69L16.56 3.69Q16.93 3.76 17.30 3.86L17.30 3.86L16.99 5.33L16.86 5.39L16.86 5.39Q16.52 5.24 16.19 5.14L16.19 5.14L16.19 5.14Q15.86 5.03 15.56 4.96L15.56 4.96L15.56 4.96Q15.26 4.89 14.99 4.87L14.99 4.87L14.99 4.87Q14.73 4.84 14.53 4.84L14.53 4.84L14.53 4.84Q14.18 4.84 13.90 4.92L13.90 4.92L13.90 4.92Q13.61 5.00 13.41 5.16L13.41 5.16L13.41 5.16Q13.20 5.31 13.09 5.54L13.09 5.54L13.09 5.54Q12.98 5.77 12.98 6.06L12.98 6.06L12.98 6.06Q12.98 6.47 13.18 6.75L13.18 6.75L13.18 6.75Q13.38 7.03 13.70 7.25L13.70 7.25L13.70 7.25Q14.03 7.47 14.44 7.65L14.44 7.65L14.44 7.65Q14.86 7.83 15.29 8.01L15.29 8.01L15.29 8.01Q15.72 8.20 16.14 8.42L16.14 8.42L16.14 8.42Q16.56 8.63 16.88 8.94L16.88 8.94L16.88 8.94Q17.21 9.25 17.40 9.67L17.40 9.67L17.40 9.67Q17.60 10.08 17.60 10.66L17.60 10.66L17.60 10.66Q17.60 11.33 17.33 11.90L17.33 11.90L17.33 11.90Q17.06 12.47 16.56 12.89L16.56 12.89L16.56 12.89Q16.06 13.30 15.36 13.54L15.36 13.54L15.36 13.54Q14.66 13.78 13.79 13.78L13.79 13.78L13.79 13.78Q13.45 13.78 13.07 13.74L13.07 13.74L13.07 13.74Q12.69 13.70 12.29 13.62L12.29 13.62L12.29 13.62Q11.89 13.54 11.48 13.41L11.48 13.41L11.48 13.41Q11.08 13.29 10.71 13.13L10.71 13.13L11.01 11.66L11.16 11.59L11.16 11.59Q11.91 11.97 12.57 12.20L12.57 12.20L12.57 12.20Q13.24 12.43 13.88 12.43ZM21.73 13.64L19.67 13.64L19.67 3.63L21.73 3.63L21.73 7.78L26.29 7.78L26.29 3.63L28.35 3.63L28.35 13.64L26.29 13.64L26.29 9.13L21.73 9.13L21.73 13.64ZM38.72 11.71L38.72 12.71L38.72 12.71Q38.38 13.00 37.95 13.21L37.95 13.21L37.95 13.21Q37.52 13.41 37.06 13.54L37.06 13.54L37.06 13.54Q36.61 13.67 36.15 13.72L36.15 13.72L36.15 13.72Q35.70 13.78 35.30 13.78L35.30 13.78L35.30 13.78Q34.28 13.78 33.41 13.44L33.41 13.44L33.41 13.44Q32.53 13.09 31.89 12.45L31.89 12.45L31.89 12.45Q31.25 11.81 30.89 10.91L30.89 10.91L30.89 10.91Q30.52 10.01 30.52 8.91L30.52 8.91L30.52 8.91Q30.52 8.05 30.74 7.32L30.74 7.32L30.74 7.32Q30.95 6.58 31.34 5.98L31.34 5.98L31.34 5.98Q31.73 5.38 32.26 4.92L32.26 4.92L32.26 4.92Q32.79 4.45 33.41 4.14L33.41 4.14L33.41 4.14Q34.04 3.82 34.74 3.66L34.74 3.66L34.74 3.66Q35.44 3.49 36.16 3.49L36.16 3.49L36.16 3.49Q36.39 3.49 36.70 3.51L36.70 3.51L36.70 3.51Q37.00 3.53 37.34 3.58L37.34 3.58L37.34 3.58Q37.68 3.62 38.04 3.69L38.04 3.69L38.04 3.69Q38.40 3.76 38.76 3.86L38.76 3.86L38.45 5.33L38.31 5.39L38.31 5.39Q37.64 5.08 37.04 4.96L37.04 4.96L37.04 4.96Q36.45 4.84 36.01 4.84L36.01 4.84L36.01 4.84Q35.27 4.84 34.65 5.12L34.65 5.12L34.65 5.12Q34.03 5.39 33.58 5.89L33.58 5.89L33.58 5.89Q33.14 6.38 32.89 7.06L32.89 7.06L32.89 7.06Q32.65 7.74 32.65 8.54L32.65 8.54L32.65 8.54Q32.65 9.34 32.89 10.04L32.89 10.04L32.89 10.04Q33.13 10.73 33.60 11.25L33.60 11.25L33.60 11.25Q34.06 11.76 34.73 12.06L34.73 12.06L34.73 12.06Q35.40 12.35 36.26 12.35L36.26 12.35L36.26 12.35Q36.86 12.35 37.48 12.20L37.48 12.20L37.48 12.20Q38.10 12.04 38.72 11.71L38.72 11.71ZM43.44 12.43L43.44 12.43L43.44 12.43Q43.80 12.43 44.13 12.35L44.13 12.35L44.13 12.35Q44.45 12.26 44.70 12.08L44.70 12.08L44.70 12.08Q44.94 11.91 45.08 11.65L45.08 11.65L45.08 11.65Q45.22 11.40 45.22 11.06L45.22 11.06L45.22 11.06Q45.22 10.66 45.02 10.37L45.02 10.37L45.02 10.37Q44.82 10.09 44.50 9.88L44.50 9.88L44.50 9.88Q44.18 9.67 43.77 9.50L43.77 9.50L43.77 9.50Q43.35 9.32 42.92 9.14L42.92 9.14L42.92 9.14Q42.49 8.96 42.07 8.73L42.07 8.73L42.07 8.73Q41.66 8.51 41.34 8.20L41.34 8.20L41.34 8.20Q41.02 7.89 40.82 7.45L40.82 7.45L40.82 7.45Q40.62 7.02 40.62 6.42L40.62 6.42L40.62 6.42Q40.62 5.74 40.88 5.20L40.88 5.20L40.88 5.20Q41.14 4.66 41.61 4.28L41.61 4.28L41.61 4.28Q42.08 3.90 42.75 3.70L42.75 3.70L42.75 3.70Q43.41 3.49 44.22 3.49L44.22 3.49L44.22 3.49Q44.45 3.49 44.75 3.51L44.75 3.51L44.75 3.51Q45.06 3.53 45.40 3.57L45.40 3.57L45.40 3.57Q45.75 3.62 46.12 3.69L46.12 3.69L46.12 3.69Q46.49 3.76 46.86 3.86L46.86 3.86L46.55 5.33L46.42 5.39L46.42 5.39Q46.08 5.24 45.75 5.14L45.75 5.14L45.75 5.14Q45.42 5.03 45.12 4.96L45.12 4.96L45.12 4.96Q44.82 4.89 44.55 4.87L44.55 4.87L44.55 4.87Q44.29 4.84 44.09 4.84L44.09 4.84L44.09 4.84Q43.74 4.84 43.46 4.92L43.46 4.92L43.46 4.92Q43.17 5.00 42.96 5.16L42.96 5.16L42.96 5.16Q42.76 5.31 42.65 5.54L42.65 5.54L42.65 5.54Q42.54 5.77 42.54 6.06L42.54 6.06L42.54 6.06Q42.54 6.47 42.74 6.75L42.74 6.75L42.74 6.75Q42.94 7.03 43.26 7.25L43.26 7.25L43.26 7.25Q43.59 7.47 44.00 7.65L44.00 7.65L44.00 7.65Q44.42 7.83 44.85 8.01L44.85 8.01L44.85 8.01Q45.28 8.20 45.70 8.42L45.70 8.42L45.70 8.42Q46.12 8.63 46.44 8.94L46.44 8.94L46.44 8.94Q46.76 9.25 46.96 9.67L46.96 9.67L46.96 9.67Q47.16 10.08 47.16 10.66L47.16 10.66L47.16 10.66Q47.16 11.33 46.89 11.90L46.89 11.90L46.89 11.90Q46.62 12.47 46.12 12.89L46.12 12.89L46.12 12.89Q45.62 13.30 44.92 13.54L44.92 13.54L44.92 13.54Q44.21 13.78 43.35 13.78L43.35 13.78L43.35 13.78Q43.00 13.78 42.63 13.74L42.63 13.74L42.63 13.74Q42.25 13.70 41.85 13.62L41.85 13.62L41.85 13.62Q41.45 13.54 41.04 13.41L41.04 13.41L41.04 13.41Q40.64 13.29 40.26 13.13L40.26 13.13L40.57 11.66L40.71 11.59L40.71 11.59Q41.47 11.97 42.13 12.20L42.13 12.20L42.13 12.20Q42.80 12.43 43.44 12.43Z"></path></g><!----><!----></svg>